Coordinates
version=1
nRows=11
nColumns=63
inDegrees=yes

Units are S.I. units (second, meters, Newtons, ...)
If the header above contains a line with 'inDegrees', this indicates whether rotational values are in degrees (yes) or radians (no).

endheader
time	pelvis_tilt	pelvis_list	pelvis_rotation	pelvis_tx	pelvis_ty	pelvis_tz	hip_flexion_r	hip_adduction_r	hip_rotation_r	knee_angle_r	knee_angle_r_beta	ankle_angle_r	subtalar_angle_r	mtp_angle_r	hip_flexion_l	hip_adduction_l	hip_rotation_l	knee_angle_l	knee_angle_l_beta	ankle_angle_l	subtalar_angle_l	mtp_angle_l	L5_S1_Flex_Ext	L5_S1_Lat_Bending	L5_S1_axial_rotation	L4_L5_Flex_Ext	L4_L5_Lat_Bending	L4_L5_axial_rotation	L3_L4_Flex_Ext	L3_L4_Lat_Bending	L3_L4_axial_rotation	L2_L3_Flex_Ext	L2_L3_Lat_Bending	L2_L3_axial_rotation	L1_L2_Flex_Ext	L1_L2_Lat_Bending	L1_L2_axial_rotation	L1_T12_Flex_Ext	L1_T12_Lat_Bending	L1_T12_axial_rotation	Abs_r3	Abs_r2	Abs_r1	Abs_t1	Abs_t2	neck_flexion	neck_bending	neck_rotation	arm_flex_r	arm_add_r	arm_rot_r	elbow_flex_r	pro_sup_r	wrist_flex_r	wrist_dev_r	arm_flex_l	arm_add_l	arm_rot_l	elbow_flex_l	pro_sup_l	wrist_flex_l	wrist_dev_l
0.754717	3.288907	-14.011020	118.555383	0.186997	0.362195	0.676029	3.550694	-0.441666	-16.015362	7.240194	0.126365	25.186358	-10.447687	0.000000	7.966412	-1.742035	3.385866	8.252310	0.144030	31.687803	14.415309	0.000000	0.064231	0.459239	-1.028496	0.119283	0.610788	-1.092777	0.105525	1.116594	-1.092777	0.073409	1.116594	-0.899934	0.059645	0.936481	-0.835653	0.036701	0.711361	-0.771372	0.458794	5.195005	-5.720187	0.000000	0.000000	7.062535	-9.051583	17.071899	60.383328	-105.922600	11.083341	18.230673	6.317221	-23.926590	23.206090	89.444147	-66.838850	273.944584	30.469173	5.692334	-19.028034	1.805029
0.773585	3.301818	-14.057192	118.893259	0.186686	0.362250	0.676820	3.611391	-0.489002	-16.311046	7.309012	0.127566	25.037832	-10.505826	0.000000	8.147287	-1.677890	3.665265	8.392482	0.146476	31.660085	14.486925	0.000000	0.063853	0.453856	-1.085596	0.118581	0.603629	-1.153446	0.104904	1.103506	-1.153446	0.072978	1.103506	-0.949897	0.059294	0.925504	-0.882047	0.036486	0.703024	-0.814197	0.456096	5.134114	-6.037761	0.000000	0.000000	6.548929	-8.892414	17.357277	59.839842	-106.045425	13.760241	17.404203	7.706467	-22.704628	23.393512	90.937940	-66.369363	276.979910	31.323620	2.947532	-19.241295	1.020735
0.792453	3.294578	-14.108456	119.221720	0.186416	0.362303	0.677502	3.646476	-0.542332	-16.457538	7.349770	0.128278	24.853388	-10.700674	0.000000	8.309417	-1.594934	3.959021	8.514488	0.148606	31.626093	14.529246	0.000000	0.063574	0.447407	-1.147534	0.118063	0.595051	-1.219255	0.104446	1.087824	-1.219255	0.072659	1.087824	-1.004092	0.059035	0.912352	-0.932371	0.036326	0.693033	-0.860651	0.454102	5.061153	-6.382241	0.000000	0.000000	6.112405	-8.813814	17.778643	59.040009	-106.383779	18.164477	16.632771	9.116231	-21.199520	23.644558	92.400136	-66.237634	276.453868	31.529292	2.276128	-19.033567	0.502411
0.811321	3.261003	-14.154194	119.529125	0.186206	0.362372	0.678075	3.647063	-0.601178	-16.442680	7.361786	0.128487	24.656035	-11.027688	0.000000	8.433017	-1.494615	4.271240	8.604283	0.150173	31.577947	14.532981	0.000000	0.060968	0.439743	-1.222813	0.113223	0.584859	-1.299238	0.100164	1.069192	-1.299238	0.069680	1.069192	-1.069961	0.056614	0.896725	-0.993535	0.034837	0.681163	-0.917109	0.435485	4.974466	-6.800917	0.000000	0.000000	5.765626	-8.806106	18.359714	57.838845	-106.789812	23.550010	15.862023	10.621798	-19.495327	23.970580	93.784827	-66.568155	272.006015	30.978562	3.991839	-18.243509	0.244636
0.830189	3.259211	-14.198148	119.811689	0.185961	0.362454	0.678536	3.648497	-0.624126	-16.321327	7.351437	0.128307	24.444696	-11.394931	0.000000	8.550023	-1.424482	4.561780	8.671708	0.151350	31.527218	14.514828	0.000000	0.060067	0.440131	-1.307735	0.111551	0.585375	-1.389468	0.098685	1.070135	-1.389468	0.068651	1.070135	-1.144268	0.055779	0.897516	-1.062534	0.034323	0.681763	-0.980801	0.429056	4.978854	-7.273228	0.000000	0.000000	5.541484	-8.970589	19.225477	56.360961	-107.297781	29.530699	15.238588	11.983885	-17.836130	24.227944	94.644310	-67.422948	263.748223	29.629533	8.381946	-16.935467	0.188915
0.849057	3.200419	-14.219136	120.092625	0.185879	0.362526	0.678939	3.595149	-0.669105	-16.098243	7.315657	0.127682	24.271682	-11.843020	0.000000	8.627760	-1.326160	4.806879	8.749185	0.152702	31.494213	14.559959	0.000000	0.056161	0.428377	-1.391901	0.104297	0.569742	-1.478895	0.092267	1.041557	-1.478895	0.064187	1.041557	-1.217914	0.052151	0.873547	-1.130920	0.032091	0.663556	-1.043926	0.401154	4.845889	-7.741337	0.000000	0.000000	5.295157	-9.012223	19.744682	55.173222	-107.772622	36.175206	14.613399	13.226837	-16.164739	24.406633	95.743640	-67.371982	262.982869	29.887201	8.449309	-17.253299	-0.176935
0.867925	3.134989	-14.230891	120.324648	0.185854	0.362610	0.679259	3.536443	-0.711808	-15.814630	7.283352	0.127118	24.144236	-12.252427	0.000000	8.679879	-1.234768	4.994041	8.810545	0.153773	31.457019	14.612093	0.000000	0.052433	0.415858	-1.469212	0.097374	0.553091	-1.561037	0.086143	1.011117	-1.561037	0.059926	1.011117	-1.285560	0.048690	0.848017	-1.193734	0.029960	0.644164	-1.101909	0.374526	4.704267	-8.171314	0.000000	0.000000	5.100366	-9.119354	20.172326	54.097318	-108.253013	42.938725	14.034228	14.323790	-14.586987	24.468244	96.432646	-67.315502	262.398236	30.139169	8.555962	-17.633247	-0.569516
0.886792	3.053844	-14.227719	120.504639	0.185932	0.362718	0.679478	3.469451	-0.753337	-15.459485	7.262307	0.126751	24.038532	-12.678777	0.000000	8.696403	-1.149191	5.115948	8.855896	0.154565	31.411793	14.672417	0.000000	0.047146	0.401374	-1.538597	0.087555	0.533827	-1.634759	0.077457	0.975900	-1.634759	0.053883	0.975900	-1.346272	0.043780	0.818481	-1.250110	0.026939	0.621728	-1.153948	0.336761	4.540420	-8.557214	0.000000	0.000000	4.958229	-9.303159	20.479801	53.259320	-108.755611	49.849209	13.517521	15.193078	-13.108205	24.437226	96.736663	-67.289157	262.053061	30.325520	8.687050	-18.019835	-1.002159
0.905660	2.992070	-14.203257	120.646390	0.186016	0.362841	0.679673	3.398896	-0.761214	-15.010469	7.233705	0.126252	23.922773	-13.178811	0.000000	8.700519	-1.095761	5.198518	8.905888	0.155437	31.386311	14.733993	0.000000	0.041386	0.391560	-1.608463	0.076858	0.520775	-1.708992	0.067993	0.952039	-1.708992	0.047300	0.952039	-1.407405	0.038431	0.798469	-1.306876	0.023648	0.606527	-1.206347	0.295615	4.429406	-8.945789	0.000000	0.000000	4.914970	-9.588950	20.779404	52.562922	-109.170653	55.843231	13.075167	15.764226	-11.929420	24.234368	96.513128	-67.336105	261.816616	30.496423	9.235349	-18.660847	-1.421777
0.924528	2.927839	-14.160731	120.702611	0.186211	0.362984	0.679762	3.331024	-0.761575	-14.558639	7.228493	0.126161	23.854764	-13.589850	0.000000	8.662755	-1.065355	5.204592	8.928626	0.155834	31.357342	14.798029	0.000000	0.034224	0.382954	-1.666301	0.063558	0.509329	-1.770445	0.056227	0.931115	-1.770445	0.039115	0.931115	-1.458013	0.031781	0.780920	-1.353870	0.019556	0.593196	-1.249726	0.244462	4.332056	-9.267467	0.000000	0.000000	4.926837	-9.951491	20.989984	52.064035	-109.564983	61.593235	12.709795	16.237288	-10.934756	23.873729	95.892276	-67.444827	261.768867	30.596299	9.685099	-19.196454	-1.869472
0.943396	2.886468	-14.105154	120.715925	0.186397	0.363146	0.679808	3.282649	-0.741280	-14.130341	7.251598	0.126564	23.810284	-13.959395	0.000000	8.610425	-1.065070	5.204525	8.939654	0.156026	31.336608	14.816062	0.000000	0.027952	0.379709	-1.720232	0.051909	0.505013	-1.827747	0.045922	0.923225	-1.827747	0.031946	0.923225	-1.505203	0.025956	0.774303	-1.397689	0.015972	0.588169	-1.290174	0.199656	4.295346	-9.567416	0.000000	0.000000	4.996623	-10.355123	21.280498	51.434146	-109.800704	66.002559	12.309703	16.710641	-10.009923	23.371887	94.646297	-67.616340	261.876890	30.649422	10.305300	-19.800320	-2.231103
